<svg width="13" height="13" viewBox="0 0 13 13" fill="none" xmlns="http://www.w3.org/2000/svg">
<path fill-rule="evenodd" clip-rule="evenodd" d="M12.2553 0.199967C12.5351 0.199902 12.7657 0.41053 12.7972 0.681869L12.8008 0.745495L12.8 3.83142C12.7999 4.13263 12.5557 4.37674 12.2545 4.37666C11.9748 4.37659 11.7443 4.16599 11.7129 3.89474L11.7092 3.83113L11.71 1.29019L8.98325 1.2915C8.70356 1.29157 8.47299 1.08108 8.44142 0.809847L8.43774 0.746244C8.43767 0.466552 8.64816 0.235984 8.91939 0.204417L8.98299 0.200733L12.2553 0.199967Z" fill="white"/>
<path fill-rule="evenodd" clip-rule="evenodd" d="M4.45579 0.202965L1.75796 0.406606C1.40247 0.433441 1.1068 0.693454 1.03899 1.04445C0.381834 4.44613 1.05947 7.52577 3.312 9.73967C5.55562 11.9448 8.66297 12.6051 12.122 11.9699C12.4936 11.9017 12.7672 11.5812 12.7712 11.2022L12.8008 8.34822C12.8064 7.79833 12.3777 7.34331 11.8285 7.30725L9.61898 7.16222L9.52015 7.16039C9.25771 7.1679 9.00604 7.27369 8.81741 7.45908L7.77946 8.47945L4.57751 5.33258L5.58846 4.33955C5.81986 4.11212 5.93091 3.78995 5.88751 3.46885L5.56666 1.09535C5.49308 0.551002 5.00413 0.161573 4.45579 0.202965ZM4.49243 1.29346L4.8022 3.5819L3.76806 4.59933C3.35702 5.00332 3.35702 5.66228 3.76806 6.06627L7.04652 9.28852L7.11637 9.3513C7.52421 9.68611 8.12891 9.66519 8.51215 9.28852L9.56668 8.25148L11.7095 8.39219L11.6828 10.9386L11.4794 10.9715C8.52722 11.4146 5.94403 10.7972 4.07659 8.96174L3.94182 8.82584C2.17436 6.9971 1.58642 4.50168 2.03492 1.67741L2.06819 1.47671L4.49243 1.29346Z" fill="white"/>
<path fill-rule="evenodd" clip-rule="evenodd" d="M11.8698 0.359706C12.0828 0.146721 12.4281 0.146721 12.6411 0.359706C12.8377 0.556309 12.8528 0.865668 12.6864 1.07962L12.6411 1.131L9.36877 4.4033C9.15578 4.61629 8.81046 4.61629 8.59748 4.4033C8.40087 4.2067 8.38575 3.89734 8.55211 3.68339L8.59748 3.63201L11.8698 0.359706Z" fill="white"/>
</svg>
