<svg width="12" height="12" viewBox="0 0 12 12" fill="none" xmlns="http://www.w3.org/2000/svg">
<path fill-rule="evenodd" clip-rule="evenodd" d="M5.22251 0.0989746L5.276 0.141855L11.276 5.5964C11.2946 5.61329 11.3117 5.63114 11.3274 5.64981L11.3591 5.6916L11.3986 5.759C11.4344 5.83168 11.4545 5.91349 11.4545 6L11.4509 6.06318C11.4429 6.13266 11.4215 6.20087 11.3868 6.26364L11.3591 6.30841L11.3163 6.36289L11.276 6.4036L5.276 11.8581C5.0531 12.0608 4.70813 12.0444 4.50549 11.8215C4.31843 11.6157 4.31804 11.3059 4.49441 11.1001L4.54218 11.0509L9.49854 6.54545L0.545454 6.54545C0.244208 6.54545 0 6.30125 0 6C0 5.72027 0.210567 5.48972 0.481843 5.45822L0.545454 5.45455L9.49854 5.45455L4.54218 0.949061C4.33642 0.762009 4.30659 0.45368 4.4626 0.232032L4.50549 0.178546C4.67695 -0.0100653 4.95032 -0.0508438 5.16542 0.0638377L5.22251 0.0989746Z" fill="#ffffff"/>
</svg>
